<?xml version="1.0" standalone="no"?>
<!DOCTYPE svg PUBLIC "-//W3C//DTD SVG 20010904//EN"
 "http://www.w3.org/TR/2001/REC-SVG-20010904/DTD/svg10.dtd">
<svg version="1.0" xmlns="http://www.w3.org/2000/svg"
 width="1280.000000pt" height="853.000000pt" viewBox="0 0 1280.000000 853.000000"
 preserveAspectRatio="xMidYMid meet">
<metadata>
Created by potrace 1.16, written by Peter Selinger 2001-2019
</metadata>
<g transform="translate(0.000000,853.000000) scale(0.100000,-0.100000)"
fill="#000000" stroke="none">
<path d="M0 8275 l0 -255 708 -471 c389 -259 711 -475 715 -479 4 -4 -122 -33
-280 -64 -158 -32 -290 -59 -291 -61 -2 -2 207 -144 464 -316 l468 -312 280
57 c155 31 290 56 301 56 26 0 961 -623 943 -629 -7 -3 -139 -30 -293 -61
l-280 -56 467 -312 c258 -172 475 -312 484 -312 8 0 91 15 182 34 137 28 193
35 313 37 l147 3 47 -31 47 -31 -48 -15 c-159 -52 -312 -77 -463 -77 -117 0
-133 -7 -93 -43 64 -58 269 -53 625 17 64 12 117 21 117 19 0 -1 -60 -33 -132
-69 -398 -199 -741 -283 -1125 -272 -183 5 -179 7 -143 -68 29 -59 99 -120
183 -159 228 -107 592 -82 1008 69 210 76 202 71 197 114 -3 20 4 69 14 107
11 39 18 89 16 112 -2 30 0 39 9 32 33 -28 141 -33 114 -6 -17 17 -13 55 9 77
24 24 34 25 54 4 21 -21 20 -50 -3 -73 -11 -11 -17 -22 -14 -25 10 -10 83 -7
103 4 17 9 18 7 13 -26 -3 -20 0 -73 7 -118 11 -74 11 -86 -5 -119 -10 -21
-15 -47 -11 -61 3 -13 -4 -59 -15 -102 -11 -44 -18 -94 -15 -111 l5 -33 -29
15 c-33 17 -68 19 -90 5 -12 -7 -12 -12 -2 -22 18 -18 15 -52 -7 -77 -36 -41
-83 7 -62 63 6 14 15 26 21 26 6 0 8 5 5 10 -9 15 -77 12 -117 -5 -19 -8 -71
-45 -114 -82 -261 -225 -595 -432 -787 -488 l-59 -17 7 -36 c17 -92 93 -137
219 -130 42 2 76 1 76 -2 0 -3 -21 -109 -46 -237 l-47 -232 -166 -110 -166
-110 -85 8 c-97 8 -203 6 -343 -10 -55 -6 -101 -9 -103 -6 -2 2 3 40 13 86 9
45 13 84 10 87 -3 3 -214 -134 -469 -304 l-465 -310 -59 -295 -59 -295 -950
-634 -950 -633 -3 -258 -2 -257 382 0 383 0 332 221 333 222 282 -57 c156 -31
291 -56 301 -56 14 0 700 448 717 469 3 3 14 8 25 9 11 2 40 15 65 28 57 31
97 30 140 -1 43 -32 93 -32 145 0 51 31 89 31 140 0 53 -33 104 -32 155 1 47
31 102 29 146 -5 40 -32 70 -28 78 10 11 57 8 66 -25 73 -17 3 -42 15 -56 26
-46 36 -85 36 -148 0 -63 -36 -86 -35 -164 7 -53 28 -85 26 -132 -9 -41 -30
-100 -30 -132 0 -18 17 -46 26 -96 34 -39 6 -71 14 -71 17 0 11 68 41 92 41
12 0 41 -12 66 -26 56 -33 100 -33 148 0 49 33 77 33 138 0 27 -14 64 -26 83
-26 20 0 49 10 72 26 46 32 85 33 136 1 56 -34 81 -33 89 6 11 57 8 66 -25 73
-17 3 -44 15 -61 27 -41 29 -99 30 -137 1 -51 -37 -82 -38 -154 -3 -35 17 -69
31 -77 31 -7 0 -37 -14 -67 -31 -61 -35 -93 -35 -146 3 -41 29 -89 27 -151 -6
-27 -14 -59 -26 -71 -26 -21 0 -22 -3 -14 -37 4 -21 7 -39 5 -40 -4 -4 -307
56 -329 65 -15 6 46 51 277 205 l296 197 0 393 c0 215 3 445 7 511 l6 118 -22
-7 c-21 -6 -22 -4 -19 42 l3 48 65 11 c36 7 129 12 208 13 l142 1 0 -27 c1
-16 1 -161 0 -323 0 -162 2 -354 6 -426 l7 -130 271 -54 271 -53 431 287 431
287 -10 39 c-9 31 -16 39 -39 42 -15 3 -30 0 -33 -6 -2 -6 -2 5 1 24 10 57 36
102 71 123 31 18 34 23 31 61 -3 36 -6 41 -29 44 -50 6 -119 -110 -119 -200 0
-15 -3 -28 -7 -28 -13 0 -367 71 -371 74 -1 2 140 98 315 214 175 115 327 218
338 229 26 24 75 55 75 48 0 -4 14 3 30 15 17 12 30 25 30 30 0 15 -53 72 -84
91 l-29 18 25 6 c15 4 36 17 48 30 l22 23 -21 21 c-24 24 -25 31 -9 66 14 31
42 32 63 3 20 -30 46 -15 60 36 l11 37 21 -28 c11 -16 51 -45 89 -64 45 -23
77 -47 91 -70 13 -19 28 -38 34 -44 7 -5 40 -38 73 -72 34 -35 69 -63 79 -63
17 0 77 27 77 34 0 3 -28 24 -62 49 -235 168 -423 459 -513 797 l-25 95 0 673
c-1 378 -5 672 -10 672 -4 0 -16 -21 -26 -46 l-17 -46 -14 26 c-11 21 -59 56
-76 56 -2 0 -4 -13 -4 -29 0 -17 -5 -37 -13 -45 -18 -22 -57 -20 -70 4 -12 22
-8 33 24 68 21 24 21 24 1 38 -12 10 -31 13 -50 10 -22 -4 -26 -3 -15 4 12 8
9 10 -13 10 l-29 0 25 29 c14 17 32 60 42 103 15 59 25 80 55 109 21 20 41 46
45 58 4 13 33 52 66 88 33 37 63 80 69 101 5 20 10 85 10 144 l0 108 182 2
181 3 -136 90 c-100 66 -137 95 -137 110 0 22 42 141 85 245 24 57 27 72 21
134 -4 39 -14 81 -22 94 -25 38 -74 53 -133 42 -77 -14 -108 -4 -171 59 -31
31 -64 67 -74 81 l-17 25 5 -42 c2 -28 16 -60 38 -90 19 -27 38 -53 41 -59 5
-8 -21 -5 -71 8 -95 24 -257 102 -337 162 -64 50 -75 48 -75 -14 0 -103 128
-251 314 -363 47 -28 54 -36 42 -46 -12 -10 -23 -6 -57 18 -45 33 -61 38 -55
19 3 -7 7 -25 10 -40 6 -26 4 -28 -29 -28 -91 0 -283 103 -555 296 -85 61
-165 116 -177 123 -23 11 -23 11 -23 -42 0 -66 27 -149 77 -230 50 -84 198
-229 312 -306 93 -64 285 -167 350 -189 19 -7 32 -14 30 -17 -3 -2 -44 10 -92
28 -69 26 -153 77 -415 252 l-328 219 -54 286 c-29 157 -58 291 -63 298 -10
13 -937 636 -937 629 0 -2 25 -131 55 -287 30 -156 53 -286 51 -288 -2 -1
-470 308 -1041 687 l-1036 691 -385 0 -384 0 0 -255z m4970 -4177 c-12 -40
-38 -110 -57 -156 l-36 -82 26 -38 c34 -49 51 -97 43 -127 -4 -15 1 -36 13
-57 11 -18 25 -64 31 -103 6 -38 20 -85 31 -104 l20 -33 -26 6 c-26 7 -95 -16
-95 -32 0 -5 7 -15 15 -22 15 -13 20 -47 9 -74 -16 -41 -90 5 -81 50 6 34 -24
32 -66 -6 l-34 -30 -6 35 c-3 19 -27 65 -54 102 -42 60 -48 74 -48 119 0 28
-5 57 -11 65 -16 19 -22 42 -33 123 -6 40 -18 81 -30 96 l-19 27 42 -1 c44 -1
108 30 88 43 -38 23 -27 110 14 103 35 -7 46 -24 41 -64 -3 -21 -1 -38 3 -38
38 0 96 66 198 221 20 31 39 55 41 53 2 -2 -7 -36 -19 -76z"/>
<path d="M4833 3613 c-6 -14 14 -53 28 -53 5 0 7 11 3 25 -8 31 21 36 31 5 14
-45 -18 -80 -56 -60 -15 8 -19 7 -19 -3 0 -41 -60 -44 -81 -5 -15 27 7 52 22
25 14 -24 32 -11 19 13 -9 16 -15 18 -36 10 -14 -6 -30 -8 -35 -4 -5 3 -9 -8
-9 -23 0 -29 43 -103 60 -103 17 0 80 34 80 42 0 5 5 6 10 3 6 -4 26 -1 45 5
41 14 51 40 36 97 -10 38 -12 39 -52 38 -23 0 -44 -5 -46 -12z"/>
<path d="M11469 8155 c-310 -205 -565 -372 -567 -370 -2 2 22 130 53 285 31
155 55 283 53 285 -3 3 -918 -602 -932 -616 -4 -3 -33 -137 -65 -298 -32 -161
-62 -296 -67 -300 -15 -14 -915 -612 -929 -617 -8 -4 6 85 45 283 32 158 57
289 56 290 -1 1 -214 -139 -474 -312 -431 -288 -472 -317 -472 -343 0 -47 -12
-55 -57 -43 -76 21 -73 33 19 93 153 100 252 209 278 307 11 43 7 91 -8 91 -4
0 -39 -23 -77 -51 -90 -65 -209 -122 -309 -148 -44 -12 -81 -19 -83 -18 -2 2
10 22 26 44 54 75 79 143 51 143 -5 0 -10 -4 -10 -8 0 -4 -23 -34 -52 -66 -68
-76 -99 -89 -197 -81 -73 6 -77 6 -109 -22 -33 -27 -34 -32 -39 -114 -5 -84
-5 -88 35 -176 53 -118 72 -194 79 -319 6 -101 7 -104 30 -104 22 0 23 3 24
73 l1 72 34 -73 c32 -66 62 -210 49 -231 -2 -4 -5 -26 -6 -49 -2 -22 -6 -39
-11 -36 -4 3 -19 -3 -33 -12 -24 -16 -25 -18 -8 -36 9 -10 23 -16 30 -13 8 2
12 1 9 -4 -3 -4 6 -19 19 -31 14 -13 30 -40 35 -61 6 -20 24 -52 40 -69 17
-18 30 -36 30 -41 0 -22 53 -121 78 -144 l27 -25 -32 0 c-22 0 -43 -10 -65
-30 l-33 -30 24 -19 c28 -22 33 -71 9 -95 -15 -14 -19 -13 -43 6 -23 18 -26
27 -22 55 3 18 2 33 -2 33 -11 0 -52 -40 -73 -70 -16 -24 -17 -24 -17 -4 -1
12 -8 27 -16 34 -13 11 -15 -69 -15 -661 0 -371 -4 -696 -9 -724 -24 -135
-107 -348 -183 -470 -85 -134 -210 -274 -320 -358 l-69 -52 33 -14 c43 -17 69
-3 113 59 17 25 46 52 65 61 18 9 39 28 46 42 8 14 43 47 78 72 35 25 70 59
78 76 l15 30 12 -30 c7 -16 21 -37 32 -47 18 -16 20 -16 43 5 49 47 99 3 62
-54 -9 -13 -16 -27 -16 -29 0 -10 59 -36 82 -36 21 0 21 -1 -7 -18 -19 -12
-46 -49 -74 -99 -33 -63 -51 -85 -79 -99 -21 -11 -39 -23 -40 -27 -2 -4 -16
-22 -30 -39 l-26 -31 32 -28 c37 -34 62 -36 117 -10 54 25 84 60 105 121 l17
50 40 -29 c23 -16 44 -35 48 -41 3 -5 9 -8 13 -6 7 4 10 -12 15 -79 2 -39 1
-40 -29 -38 -26 2 -33 -3 -47 -32 -9 -19 -32 -45 -52 -57 -19 -13 -35 -27 -35
-31 0 -4 21 -17 46 -28 34 -16 61 -20 107 -17 34 2 69 7 78 12 13 6 16 2 12
-17 -3 -14 2 -58 10 -98 9 -41 19 -91 22 -112 6 -38 7 -39 40 -33 33 7 34 6
37 -31 l4 -38 18 40 c10 22 19 41 20 42 5 5 299 63 318 63 11 0 217 -133 459
-295 241 -163 446 -298 454 -301 13 -5 15 50 17 427 l3 434 160 0 c221 0 211
4 218 -97 4 -46 7 -254 7 -463 0 -209 3 -443 7 -521 l6 -141 31 -9 c25 -7 32
-15 34 -41 2 -24 -2 -35 -17 -45 -23 -14 -28 -43 -9 -54 6 -4 25 -10 42 -14
25 -4 31 -11 31 -30 l0 -25 -210 -5 c-165 -4 -206 -7 -190 -17 16 -9 17 -14 6
-27 -27 -32 -76 -31 -136 4 -61 35 -96 35 -147 -2 -15 -11 -44 -22 -64 -25
-35 -6 -36 -7 -29 -42 12 -68 13 -70 43 -61 15 5 45 18 67 29 52 28 82 26 129
-5 47 -32 98 -34 138 -4 45 33 90 37 135 10 58 -34 129 -52 177 -45 l41 6 -27
-15 c-98 -56 -94 -56 -173 -16 -33 16 -68 30 -77 30 -10 0 -44 -14 -77 -31
-54 -28 -63 -30 -94 -20 -20 7 -41 18 -47 26 -25 30 -74 29 -141 -4 -35 -17
-72 -31 -82 -31 -16 0 -18 -5 -12 -42 4 -24 9 -46 12 -50 8 -15 49 -7 88 17
51 32 91 32 137 0 23 -15 51 -25 73 -25 22 0 50 10 73 25 46 32 86 32 137 0
51 -31 112 -33 149 -4 43 34 97 36 150 5 69 -41 75 -38 91 41 6 28 4 33 -13
33 -10 0 -41 12 -68 26 -27 15 -60 30 -74 34 -21 6 -17 8 25 14 28 4 65 2 83
-3 26 -8 32 -7 32 5 0 20 22 27 190 59 l145 28 805 -536 805 -537 383 0 382 0
-2 258 -3 257 -475 317 -475 317 -60 296 -60 295 -473 315 c-365 243 -471 310
-467 293 13 -55 113 -563 111 -565 -6 -6 -944 628 -950 642 -16 42 -8 52 48
59 93 11 106 19 106 68 0 59 15 107 45 148 19 25 22 36 13 41 -19 10 -231 59
-256 59 -28 0 -33 10 -53 105 l-17 80 -1 -83 -1 -83 -117 8 c-65 4 -148 8
-186 8 l-67 0 0 207 0 208 -206 137 c-190 127 -204 138 -178 144 77 16 134 73
134 135 0 28 -4 32 -57 48 -225 70 -578 300 -878 570 -53 48 -94 58 -129 33
-15 -11 -16 -17 -5 -39 10 -23 9 -31 -5 -53 -19 -28 -60 -34 -70 -9 -10 26 -7
51 9 64 40 33 -18 42 -69 11 l-31 -20 -1 37 c0 20 -12 67 -27 105 -20 47 -28
84 -27 125 1 214 -1 254 -15 282 l-15 30 25 -10 c33 -13 57 -13 90 0 l26 10
-20 26 c-26 33 -27 56 -2 78 15 14 24 15 40 7 26 -14 38 -58 23 -82 -24 -38
57 -31 101 9 18 16 18 15 12 -10 -5 -17 2 -46 20 -89 42 -100 49 -134 36 -170
-8 -22 -8 -36 -1 -43 5 -5 10 -47 10 -91 l0 -81 138 -91 c286 -189 432 -244
522 -198 45 23 37 40 -22 54 -78 17 -251 91 -343 145 -74 44 -255 173 -255
182 0 2 11 10 24 19 22 15 34 12 202 -44 201 -67 325 -95 495 -112 256 -26
484 38 597 166 34 39 67 109 58 124 -2 3 -46 3 -98 0 -252 -15 -574 28 -808
109 l-54 19 104 70 c58 38 116 73 129 78 13 4 40 22 60 39 20 18 53 44 74 58
23 15 33 27 25 30 -7 3 -99 22 -205 44 -189 38 -221 54 -113 54 127 0 345 51
491 114 171 74 355 227 393 328 18 47 19 145 1 141 -5 -1 -54 -21 -107 -43
-98 -40 -304 -101 -388 -115 -42 -6 -35 0 127 109 95 64 181 116 190 116 10 0
144 -27 297 -59 l280 -59 469 313 c341 227 464 315 450 319 -10 3 -137 30
-282 61 -146 30 -267 57 -269 59 -2 3 530 360 1182 795 l1186 791 0 255 0 255
-384 0 -384 0 -563 -375z m-3619 -4005 c13 -22 28 -40 32 -40 4 0 8 -5 8 -11
0 -20 110 -159 126 -159 12 0 15 6 11 21 -12 47 42 98 76 72 6 -6 71 -57 142
-115 225 -180 438 -310 590 -358 l71 -23 48 -239 c26 -132 45 -242 43 -245 -3
-2 -193 121 -424 274 -493 329 -442 297 -437 276 3 -10 -13 -55 -36 -101 -23
-49 -40 -98 -40 -119 l0 -35 -31 26 c-40 34 -110 38 -102 6 8 -32 -23 -72 -54
-68 -53 6 -53 71 1 96 20 9 20 10 -9 22 -16 6 -45 9 -63 5 l-33 -6 14 28 c8
16 16 68 19 120 3 78 8 96 26 116 12 13 22 34 22 48 0 13 14 53 30 87 17 35
30 70 30 77 0 7 -13 45 -30 84 -35 87 -71 201 -62 201 4 0 18 -18 32 -40z"/>
<path d="M8190 3761 l0 -68 78 -74 c85 -82 140 -114 178 -105 35 9 30 26 -25
73 -27 24 -90 88 -140 143 l-91 100 0 -69z"/>
<path d="M7861 3661 c-6 -11 -11 -38 -11 -60 0 -46 26 -71 72 -71 15 0 43 -7
62 -16 19 -9 41 -14 50 -11 19 7 42 43 50 78 5 21 2 28 -14 32 -11 3 -17 1
-14 -4 9 -16 -25 -59 -46 -59 -11 0 -25 9 -32 19 -10 16 -15 17 -36 8 -21 -10
-27 -8 -43 11 -14 17 -16 29 -9 47 12 33 -13 56 -29 26z"/>
<path d="M6240 7831 c-94 -30 -100 -35 -88 -78 21 -80 91 -242 107 -248 13 -5
14 -4 4 6 -19 19 -16 49 5 49 28 0 42 20 35 52 -5 24 -2 30 15 35 l21 5 -20
17 c-19 15 -20 21 -10 56 15 55 14 125 -1 124 -7 0 -38 -9 -68 -18z"/>
<path d="M6470 7808 c0 -24 5 -61 11 -83 10 -35 9 -41 -10 -56 -20 -17 -20
-17 0 -22 16 -4 18 -11 13 -31 -7 -30 10 -56 37 -56 23 0 25 -23 3 -44 -8 -9
-11 -16 -5 -16 5 0 17 10 26 22 26 39 88 208 89 246 1 35 -1 37 -50 53 -29 9
-66 20 -83 24 -31 7 -31 7 -31 -37z"/>
<path d="M7758 7442 c-41 -23 -48 -32 -54 -67 -10 -60 -17 -69 -100 -124 -86
-58 -114 -64 -114 -26 0 14 -3 25 -6 25 -4 0 -28 -16 -55 -36 -45 -33 -49 -39
-49 -77 l0 -42 -147 -95 c-89 -57 -148 -90 -151 -82 -2 6 -11 20 -20 31 -17
19 -18 19 -69 -20 -38 -28 -53 -47 -53 -63 0 -18 -20 -37 -96 -87 -89 -59
-101 -64 -162 -67 -63 -4 -67 -3 -89 24 l-23 29 0 -24 c0 -14 7 -32 16 -42 15
-16 15 -20 1 -33 -8 -8 -23 -39 -33 -67 -17 -47 -27 -58 -87 -97 -38 -24 -74
-41 -82 -38 -7 2 -40 26 -73 51 -53 41 -61 52 -71 98 -14 59 -14 68 -6 117 5
31 5 32 -6 15 -19 -31 -28 -34 -100 -31 -64 2 -71 5 -160 65 -84 57 -93 66
-91 91 4 31 -9 46 -73 90 l-43 30 -6 -23 c-15 -55 -18 -54 -149 36 l-124 86
-7 51 c-6 48 -9 51 -58 76 l-51 26 -21 -26 -21 -26 -59 36 c-105 63 -146 102
-146 138 0 65 -122 132 -137 76 -7 -25 -10 -25 -51 0 -27 16 -50 20 -132 20
l-100 0 0 -58 0 -57 135 -84 c94 -59 134 -89 130 -99 -19 -50 -16 -57 30 -84
42 -26 49 -27 93 -17 l47 11 127 -78 126 -79 -18 -35 -18 -36 53 -21 c44 -18
58 -20 88 -11 30 9 39 8 66 -11 29 -21 30 -24 17 -43 -13 -19 -11 -23 27 -52
23 -17 53 -54 67 -81 25 -48 26 -49 100 -67 92 -22 173 -61 200 -95 27 -35 26
-40 -16 -48 -20 -3 -46 -11 -59 -17 -22 -10 -20 -13 44 -43 37 -18 71 -40 75
-50 10 -26 7 -124 -4 -146 -15 -28 -40 -24 -40 6 0 28 -21 33 -40 10 -7 -9
-15 -14 -17 -11 -3 2 -20 -13 -39 -34 -25 -27 -34 -47 -34 -72 0 -30 -5 -37
-40 -57 -22 -12 -40 -24 -40 -26 0 -2 131 -4 291 -5 l291 0 -5 32 c-3 18 -9
54 -12 79 -7 46 -7 47 19 42 25 -5 38 11 14 19 -15 5 -3 37 16 44 8 3 31 -5
50 -18 27 -19 33 -27 24 -36 -9 -9 -9 -12 0 -12 8 0 10 -8 6 -24 -4 -17 -1
-27 12 -34 13 -7 16 -18 11 -51 l-5 -41 301 0 302 0 -50 32 c-61 37 -65 43
-65 90 0 33 -6 42 -42 68 -49 36 -66 38 -70 8 -5 -33 -36 -35 -48 -3 -11 29
-13 98 -4 133 7 24 106 82 141 82 24 1 -37 27 -82 36 -19 3 -35 12 -35 18 0
36 101 92 215 121 79 20 80 21 102 66 21 43 60 85 101 108 13 7 14 12 3 24
-11 14 -6 20 28 42 37 23 49 25 104 20 56 -5 65 -3 92 19 l29 25 -22 24 c-27
28 -32 23 109 120 95 65 98 67 161 67 56 0 67 3 96 29 40 37 42 61 5 61 l-28
1 30 25 c17 14 81 60 143 101 l112 75 0 49 0 49 -100 0 c-70 0 -110 -5 -130
-15 -27 -14 -30 -14 -40 5 -14 25 -15 25 -72 -8z"/>
<path d="M6125 7073 c-76 -6 -85 -11 -85 -43 0 -17 5 -30 13 -31 6 0 21 -2 32
-4 52 -11 355 -17 478 -10 l137 7 0 38 c0 37 -1 38 -42 43 -47 5 -469 5 -533
0z"/>
<path d="M5313 6569 c-59 -17 -78 -71 -47 -132 38 -75 80 -99 173 -98 65 0 96
9 263 70 32 12 77 21 102 21 45 0 74 19 60 41 -5 8 -37 10 -108 7 -87 -5 -110
-10 -166 -37 -54 -26 -77 -31 -137 -31 -73 0 -122 12 -135 33 -4 7 -8 27 -8
45 0 31 7 41 55 76 l20 15 -20 0 c-11 -1 -34 -5 -52 -10z"/>
<path d="M7463 6548 c42 -40 48 -73 18 -109 -18 -22 -26 -24 -123 -24 -95 0
-107 2 -158 29 -46 25 -70 30 -145 34 -69 3 -100 0 -130 -12 -53 -22 -32 -36
55 -36 43 0 88 -9 135 -26 153 -55 189 -64 256 -65 59 -1 76 3 108 24 49 33
84 101 75 146 -8 38 -37 59 -90 68 l-39 6 38 -35z"/>
<path d="M5027 5943 c-4 -3 -7 -82 -7 -175 l0 -168 165 0 165 0 0 175 0 175
-158 0 c-87 0 -162 -3 -165 -7z m191 -36 c2 -11 13 -17 33 -17 26 0 29 -3 29
-33 0 -19 3 -36 6 -39 3 -3 6 -47 7 -97 l2 -91 -107 0 -108 0 0 78 c0 42 3
101 7 130 6 51 7 53 34 48 23 -3 29 0 29 13 0 24 6 28 38 26 17 0 28 -7 30
-18z"/>
<path d="M5740 5775 c0 -160 -2 -175 -17 -175 -10 -1 -96 0 -190 0 l-173 1 0
-186 c0 -178 1 -185 20 -185 17 0 20 -7 20 -47 1 -27 7 -59 15 -73 13 -23 14
-20 15 48 0 65 2 72 20 72 19 0 20 -7 20 -117 0 -95 4 -126 19 -158 l19 -40 1
158 c1 150 2 157 21 157 19 0 20 -7 20 -152 l1 -153 19 35 c16 29 19 56 20
153 0 110 1 117 20 117 18 0 20 -7 20 -67 1 -64 2 -67 15 -43 8 14 14 44 15
66 0 36 3 42 25 46 l25 5 0 -183 0 -184 171 0 172 0 -6 288 c-4 158 -7 322 -7
365 0 62 -3 77 -15 77 -13 0 -15 26 -15 175 0 168 -1 175 -20 175 -19 0 -20
-7 -20 -175 0 -168 -1 -175 -20 -175 -19 0 -20 7 -20 175 0 149 -2 175 -15
175 -8 0 -15 -6 -15 -12 -1 -7 -2 -85 -3 -173 -2 -143 -4 -160 -19 -163 -17
-3 -18 10 -18 172 0 169 -1 176 -20 176 -19 0 -20 -7 -20 -175 0 -168 -1 -175
-20 -175 -19 0 -20 7 -20 175 0 168 -1 175 -20 175 -19 0 -20 -7 -20 -175z
m-188 -262 c1 -38 2 -41 5 -15 4 29 8 33 31 30 24 -3 27 -7 24 -35 -2 -18 0
-33 5 -33 4 0 8 -42 9 -94 l1 -94 -30 -6 c-38 -8 -102 -7 -148 0 l-37 6 4 120
c2 66 6 123 8 127 3 4 15 7 28 6 16 -1 25 -10 30 -31 5 -19 6 -13 3 19 l-5 47
35 0 c35 0 35 0 37 -47z m317 -107 c10 -9 20 -14 23 -11 3 3 11 -1 18 -10 7
-8 18 -15 25 -15 7 0 15 -9 18 -20 3 -11 12 -20 21 -20 9 0 16 -7 16 -15 0
-22 -27 -18 -33 5 -3 11 -12 20 -21 20 -9 0 -16 6 -16 14 0 7 -6 19 -14 25
-11 9 -15 7 -18 -11 -3 -13 -5 -39 -4 -58 l1 -35 73 2 c49 1 72 -3 72 -10 0
-9 -44 -12 -155 -12 -109 0 -155 3 -155 11 0 7 9 14 20 17 11 3 24 17 30 31 5
14 15 25 22 24 7 -2 12 2 13 8 0 6 14 23 30 37 l30 26 -72 -3 c-54 -3 -73 0
-73 9 0 19 127 11 149 -9z m40 -227 c3 -8 17 -15 31 -15 21 0 26 -5 31 -39 4
-22 9 -82 10 -133 l4 -93 -108 3 -109 3 2 95 c3 161 2 155 32 158 23 3 27 -1
31 -30 3 -24 4 -18 5 19 2 51 2 51 34 49 17 -1 34 -9 37 -17z"/>
<path d="M6220 5915 l0 -35 90 0 90 0 0 -50 0 -50 -91 0 -90 0 3 -42 3 -43 83
-3 c77 -3 82 -2 82 18 0 20 4 20 350 20 l350 0 0 -30 c0 -28 3 -30 38 -30 33
0 39 -4 56 -41 10 -22 16 -51 14 -64 -5 -22 -4 -23 17 -9 19 13 24 13 34 0 9
-11 10 -20 1 -35 -11 -22 -30 -28 -30 -10 0 5 -4 8 -10 4 -5 -3 -7 -12 -3 -20
4 -11 21 -15 64 -15 l59 0 0 -65 c0 -52 4 -70 20 -87 27 -29 28 -88 1 -88 -16
0 -19 -10 -23 -72 -3 -40 -3 -79 0 -85 5 -16 42 -17 42 -2 0 15 26 39 34 32 3
-4 6 -1 6 5 0 7 -3 12 -8 12 -4 0 -13 10 -21 22 -12 19 -11 23 5 35 28 20 116
17 141 -6 40 -37 38 -97 -4 -151 -6 -8 -13 -19 -14 -25 -8 -37 -13 -45 -24
-45 -8 0 -11 -8 -8 -19 3 -12 29 -29 68 -46 35 -15 75 -38 89 -52 17 -17 33
-23 53 -21 39 4 43 46 8 92 -37 49 -42 96 -16 146 11 22 21 51 21 64 0 24 -28
56 -48 56 -19 0 -14 -28 6 -33 15 -3 14 -5 -5 -13 -12 -5 -22 -12 -22 -16 -1
-5 -1 -15 -1 -23 0 -8 -4 -15 -10 -15 -5 0 -7 6 -4 14 3 8 0 25 -7 38 -7 13
-12 28 -11 34 1 7 -4 14 -13 18 -8 3 -15 11 -15 17 0 8 4 8 13 1 7 -6 27 -10
44 -10 51 2 83 -26 83 -70 -1 -20 -7 -48 -15 -62 -19 -33 -19 -37 5 -43 20 -5
28 -27 10 -27 -17 0 -11 -54 10 -85 38 -57 13 -120 -43 -108 -22 4 -22 4 -3
-11 17 -14 18 -16 3 -16 -21 0 -22 -16 -2 -24 8 -3 15 -12 15 -20 0 -8 7 -19
16 -24 24 -14 31 -103 10 -121 -9 -7 -16 -20 -16 -27 0 -19 -45 -18 -65 2 -18
18 -11 30 20 36 13 2 21 12 23 29 3 22 -2 29 -27 37 -17 6 -31 7 -31 3 0 -5
-6 -11 -14 -14 -8 -3 -13 1 -12 11 1 10 -5 16 -15 14 -12 -2 -15 4 -11 23 6
31 -1 31 -32 0 -14 -14 -32 -25 -41 -25 -8 0 -15 -7 -15 -15 0 -9 -7 -18 -15
-21 -8 -4 -15 -12 -15 -20 0 -8 -9 -14 -20 -14 -11 0 -20 -5 -20 -11 0 -6 -9
-9 -20 -6 -12 3 -24 -1 -29 -11 -8 -14 -12 -14 -43 1 -19 9 -34 24 -35 35 -1
15 6 18 48 19 54 1 79 15 79 44 0 13 -6 18 -22 16 -14 -1 -23 4 -26 16 -2 11
3 17 14 17 16 0 16 1 -2 14 -10 8 -16 18 -11 22 4 4 7 2 7 -4 0 -18 19 -14 47
8 14 11 40 22 59 26 55 10 48 21 -16 27 -32 3 -73 12 -90 21 -28 14 -35 14
-60 1 -15 -8 -30 -21 -33 -30 -4 -8 -13 -15 -22 -15 -8 0 -15 -6 -15 -14 0 -8
-8 -13 -17 -11 -10 2 -23 4 -29 4 -14 1 -36 50 -28 63 3 5 16 7 28 4 29 -7 72
44 53 63 -9 9 -9 14 0 19 8 5 8 12 -1 25 -13 16 -16 16 -61 -4 -125 -55 -265
4 -320 134 -12 28 -15 78 -15 222 l0 185 -225 0 -225 0 0 -35 0 -35 -90 0 -90
0 0 -40 0 -40 90 0 90 0 0 -235 0 -235 -175 0 -175 0 0 -185 0 -185 -35 0
c-35 0 -35 0 -35 -45 l0 -45 -70 0 -70 0 0 45 0 45 -67 0 -67 0 42 -43 c32
-32 42 -51 42 -75 0 -31 -1 -32 -45 -32 l-45 0 0 75 0 75 -217 2 c-120 1 -197
3 -170 5 l47 4 -2 182 c-3 154 -5 182 -18 182 -13 0 -15 28 -18 183 -2 174 -3
182 -22 182 -19 0 -20 -7 -20 -179 0 -144 -3 -180 -14 -184 -8 -3 -17 -3 -20
0 -3 4 -6 87 -6 185 0 152 -2 178 -15 178 -13 0 -15 -27 -15 -180 0 -173 -1
-180 -20 -180 -19 0 -20 7 -20 180 0 173 -1 180 -20 180 -19 0 -20 -7 -20
-179 0 -144 -3 -180 -14 -184 -8 -3 -17 -3 -20 0 -3 4 -6 87 -6 185 0 171 -1
178 -20 178 -19 0 -20 -7 -20 -179 0 -150 -2 -180 -15 -185 -43 -16 1 -23 146
-22 88 1 163 -1 165 -3 6 -6 -17 -31 -28 -31 -5 0 -7 3 -4 8 2 4 -54 7 -125 7
-145 1 -136 6 -137 -85 l-1 -55 59 -1 c69 0 81 -8 55 -32 -16 -14 -17 -14 -7
0 12 15 7 16 -47 16 l-60 -1 2 -66 2 -66 132 -1 132 0 -34 33 c-19 18 -38 33
-43 33 -5 0 -12 8 -15 19 -3 14 0 17 13 14 10 -3 21 -14 23 -25 3 -11 10 -17
16 -13 6 3 15 -5 21 -19 5 -14 18 -30 30 -36 11 -6 19 -14 16 -18 -2 -4 -77
-6 -165 -6 -176 2 -223 -13 -58 -19 l102 -3 -102 -2 -101 -2 1 -117 2 -118
337 -3 337 -2 3 -28 c3 -24 8 -27 46 -30 27 -2 42 -8 42 -16 0 -8 7 -27 15
-42 8 -16 12 -36 10 -45 -4 -12 1 -15 26 -11 29 4 30 3 27 -24 -2 -21 -9 -29
-23 -30 -38 -3 -40 -4 -25 -14 12 -7 12 -10 1 -10 -7 0 -11 -6 -9 -12 3 -7 -3
-22 -13 -32 -19 -19 -19 -18 -19 32 l0 52 -34 0 c-19 0 -38 -4 -41 -10 -4 -6
-130 -10 -345 -10 l-338 0 3 -92 c5 -152 60 -335 161 -528 104 -200 239 -353
424 -480 70 -47 89 -65 79 -72 -11 -7 -10 -8 4 -4 10 3 46 -8 85 -28 37 -18
88 -41 114 -51 27 -10 45 -22 41 -28 -3 -6 -1 -7 5 -3 6 4 35 0 63 -8 49 -15
53 -15 83 6 48 33 125 108 158 156 29 42 29 44 11 57 -10 8 -21 15 -25 15 -17
0 -6 30 11 30 24 0 45 25 37 45 -7 20 -59 40 -64 26 -6 -17 -22 -13 -22 5 0
11 -6 14 -21 9 -18 -6 -19 -5 -8 14 21 32 3 36 -31 7 -18 -14 -36 -24 -41 -20
-5 3 -9 -1 -9 -8 -1 -33 -72 -86 -106 -80 -7 1 -14 -4 -18 -13 -7 -19 -36 -20
-36 -1 0 9 -7 12 -20 9 -16 -4 -20 0 -20 21 0 25 2 26 55 26 49 0 57 3 64 23
11 28 4 39 -20 32 -12 -4 -19 -1 -20 7 -1 7 -3 29 -5 47 -4 31 -3 33 9 17 13
-17 15 -17 51 8 22 14 48 26 60 26 12 0 27 4 34 9 9 5 -8 10 -46 13 -33 3 -75
13 -95 23 -33 15 -38 15 -67 0 -17 -9 -34 -23 -37 -30 -3 -8 -9 -12 -14 -9 -5
3 -9 -2 -9 -10 0 -21 -46 -21 -66 -1 -9 8 -12 15 -8 15 3 0 2 6 -4 13 -16 19
3 46 20 29 18 -18 24 -15 48 18 17 24 19 34 11 44 -9 10 -9 15 -1 18 10 3 1
39 -16 66 -1 2 -23 -4 -48 -12 -30 -10 -63 -14 -96 -10 l-49 5 -3 -65 -3 -65
-130 205 c-71 113 -132 210 -134 216 -2 6 16 9 48 7 40 -3 51 -1 52 11 1 8 1
68 0 133 l-1 117 240 0 240 0 0 -35 c0 -22 8 -43 20 -55 28 -28 29 -110 1
-110 -17 0 -20 -10 -24 -102 -3 -57 -7 -114 -9 -128 -4 -32 31 -42 39 -11 5
19 15 25 36 22 4 -1 2 8 -5 19 -7 11 -16 20 -20 20 -13 0 -9 30 5 43 6 7 36
12 65 12 47 0 57 -4 78 -28 29 -34 31 -75 4 -122 -11 -20 -20 -42 -20 -50 0
-8 -4 -15 -10 -15 -5 0 -10 -7 -10 -15 0 -8 -7 -15 -15 -15 -34 0 2 -34 69
-64 39 -18 80 -43 90 -55 21 -23 55 -28 74 -9 18 18 15 30 -19 81 -35 53 -41
112 -15 152 19 29 21 86 4 103 -17 17 -48 15 -48 -4 0 -10 6 -14 15 -10 8 3
15 1 15 -5 0 -5 -6 -12 -14 -15 -8 -3 -17 -16 -20 -30 -4 -13 -10 -24 -15 -24
-5 0 -7 8 -4 19 2 10 -4 36 -14 57 l-19 39 35 0 c50 -2 79 -13 92 -36 12 -23
4 -73 -17 -106 -12 -19 -12 -22 6 -28 20 -6 28 -35 10 -35 -16 0 -12 -56 5
-70 22 -18 34 -71 22 -97 -8 -18 -19 -23 -46 -23 -33 0 -34 -1 -15 -15 18 -13
18 -14 1 -15 -10 0 -15 -5 -12 -10 4 -6 10 -8 14 -6 4 3 8 -5 8 -17 1 -11 9
-25 18 -30 9 -5 20 -18 25 -30 8 -21 8 -21 20 8 37 95 50 199 50 427 l0 228
-36 40 c-26 29 -44 40 -65 40 -28 0 -29 -2 -29 -45 l0 -45 -70 0 -70 0 0 45 0
45 -55 0 c-44 0 -53 3 -49 15 7 17 35 20 51 4 7 -7 9 -3 6 15 -3 15 2 37 12
53 l18 26 14 -27 c8 -16 13 -39 10 -53 -3 -17 -1 -21 6 -14 16 16 38 13 52 -6
12 -17 14 -17 35 2 16 15 25 17 39 8 15 -9 17 -7 13 16 -2 17 4 36 17 51 l20
25 1 -22 c0 -20 5 -23 40 -23 l40 0 0 75 0 75 -40 0 -40 0 0 53 c0 71 -9 100
-28 92 -13 -5 -13 -3 -1 11 10 13 11 18 2 21 -7 2 -9 11 -6 19 3 8 0 14 -6 14
-6 0 -11 -6 -11 -12 -1 -7 -9 -3 -20 10 -10 13 -16 30 -13 37 6 18 34 20 50 4
7 -7 9 -4 6 13 -6 32 29 104 77 158 l40 45 -2 -80 -3 -80 -42 -3 -43 -3 0 -75
0 -74 45 0 45 0 0 -40 0 -40 170 0 170 0 0 195 0 195 195 0 195 0 0 -195 0
-195 -22 0 c-13 -1 -99 -2 -193 -3 l-170 -2 -3 -182 c-2 -175 -2 -183 17 -183
16 0 19 -9 23 -72 2 -40 12 -89 20 -108 16 -35 16 -34 17 73 1 98 3 108 19
105 15 -3 18 -23 22 -193 3 -111 10 -200 17 -215 13 -29 12 -48 16 235 2 153
4 170 20 173 16 3 17 -13 18 -225 1 -220 1 -227 17 -193 13 27 18 77 22 225 4
170 7 190 23 193 15 3 17 -8 18 -110 l1 -113 18 50 c10 28 19 75 19 106 1 48
4 57 21 62 19 5 20 0 20 -134 l0 -139 168 0 169 0 6 212 c4 116 7 260 7 321 0
100 -2 109 -20 114 -19 5 -20 14 -20 199 l0 194 105 0 105 0 0 -45 0 -45 80 0
80 0 0 411 0 410 -32 39 c-26 32 -40 40 -67 40 -32 0 -33 -1 -29 -35 l4 -35
-73 0 -73 0 0 35 0 35 -51 0 c-36 0 -49 4 -46 13 2 6 16 11 31 10 19 -1 26 2
23 11 -3 6 2 28 10 47 14 32 15 33 29 15 8 -11 14 -32 14 -47 0 -22 4 -26 20
-22 11 3 27 0 35 -7 13 -11 20 -11 40 0 20 11 27 11 41 -1 15 -12 16 -12 10 7
-7 23 11 74 26 74 5 0 11 -7 14 -15 4 -9 19 -15 40 -15 l34 0 0 70 0 70 -40 0
-40 0 0 53 c0 64 -9 99 -23 90 -6 -4 -8 0 -4 10 3 10 2 17 -3 17 -5 0 -7 6 -4
13 3 9 -3 13 -18 13 -18 -1 -24 5 -26 28 -3 26 -1 28 26 24 21 -3 28 0 25 8
-5 13 32 99 47 109 5 3 19 19 30 35 l21 30 -60 0 -61 0 0 -39 c0 -45 -5 -48
-86 -43 l-54 4 0 39 0 39 -65 0 -65 0 0 -40 c0 -33 -3 -40 -20 -41 -26 -1
-108 -1 -117 0 -5 1 -8 18 -8 38 l0 38 -65 3 -65 3 40 -43 c31 -33 40 -49 37
-70 -3 -25 -7 -28 -43 -28 l-39 0 0 70 0 70 -435 0 -435 0 0 -35z m1087 -132
c-3 -18 -1 -20 12 -14 24 12 41 2 41 -25 0 -13 -2 -24 -4 -24 -2 0 -12 -3 -22
-7 -13 -5 -15 -3 -9 7 5 8 4 11 -3 6 -6 -4 -9 -13 -5 -21 3 -8 0 -15 -7 -15
-9 0 -9 -4 1 -17 12 -15 12 -16 -3 -11 -11 5 -18 0 -23 -15 -6 -19 -8 -20 -12
-4 -2 9 -11 17 -20 17 -13 0 -13 3 -3 15 10 12 10 15 0 15 -7 0 -10 7 -7 15 7
18 -9 30 -17 13 -3 -9 -9 -7 -20 6 -9 11 -16 24 -16 28 0 15 32 22 49 11 15
-9 17 -7 13 17 -2 15 2 38 8 51 l13 23 19 -24 c11 -14 18 -34 15 -47z m213 6
c0 -23 3 -26 25 -21 32 6 45 -23 21 -46 -14 -14 -18 -15 -25 -3 -11 16 -17 4
-16 -29 0 -14 -7 -32 -16 -41 -15 -15 -18 -15 -30 0 -8 9 -14 22 -15 29 -3 38
-5 43 -14 37 -15 -10 -40 14 -40 37 0 17 5 19 28 16 26 -4 29 -1 29 23 0 16 6
35 13 44 13 16 15 15 27 -1 7 -10 13 -30 13 -45z m-106 -206 c1 -25 4 -28 29
-25 21 3 27 0 27 -15 0 -20 -18 -43 -33 -43 -4 0 -5 5 -2 10 3 6 1 10 -6 10
-6 0 -9 -8 -6 -20 3 -11 1 -20 -4 -20 -4 0 -5 -7 -2 -17 4 -10 2 -14 -4 -10
-6 4 -14 -3 -18 -16 -6 -19 -8 -19 -12 -4 -2 9 -11 17 -20 17 -13 0 -13 3 -3
15 10 12 10 15 0 15 -7 0 -10 7 -7 15 4 8 2 17 -3 20 -4 3 -10 -1 -13 -7 -3
-10 -9 -9 -22 4 -25 23 -12 52 20 46 21 -4 25 -1 25 19 0 13 5 34 11 45 10 18
12 19 26 5 9 -9 16 -28 17 -44z m191 28 c8 -17 12 -36 9 -44 -4 -10 2 -13 26
-9 25 4 30 1 30 -16 0 -11 -7 -25 -16 -33 -13 -10 -17 -10 -25 2 -7 11 -9 8
-10 -11 -1 -14 -1 -29 0 -33 1 -4 -7 -16 -16 -26 -16 -16 -19 -16 -33 -2 -8 9
-15 27 -15 41 0 34 -6 45 -16 29 -7 -12 -11 -11 -25 3 -24 23 -11 52 21 46 21
-4 25 -1 25 19 0 23 16 63 25 63 3 0 11 -13 20 -29z m-762 -654 l167 -209 0
-94 c0 -69 -3 -94 -12 -94 -12 1 -478 577 -486 601 -3 6 28 9 80 7 l83 -3 168
-208z m-198 -174 c87 -109 162 -204 168 -210 7 -10 -9 -13 -76 -13 l-85 0 -86
108 -86 107 0 103 c0 56 2 102 4 102 2 0 75 -89 161 -197z m-391 2 c-1 -24 1
-29 3 -12 4 23 8 27 31 24 23 -4 27 -8 24 -36 -1 -17 1 -31 5 -31 5 0 9 -44
10 -99 l2 -98 -75 -2 c-41 -1 -89 1 -107 4 l-32 6 0 95 c0 52 4 94 9 94 4 0 5
11 2 25 -9 34 -2 43 28 38 18 -4 26 -13 29 -32 2 -14 5 -5 6 22 1 48 1 48 34
45 30 -3 32 -5 31 -43z m954 -483 c2 -187 2 -192 -18 -192 -19 0 -20 6 -20
196 0 181 1 195 18 192 15 -3 17 -22 20 -196z m72 3 c0 -188 -1 -195 -20 -195
-19 0 -20 7 -20 188 0 104 3 192 7 195 3 4 12 7 20 7 10 0 13 -39 13 -195z
m80 0 c0 -188 -1 -195 -20 -195 -19 0 -20 7 -20 195 0 188 1 195 20 195 19 0
20 -7 20 -195z m-762 138 c3 -17 9 -20 31 -17 27 5 29 3 34 -38 3 -24 7 -87 9
-141 l3 -97 -109 0 -109 0 5 131 c5 136 10 151 50 144 12 -3 18 2 18 14 0 24
4 27 37 26 20 -1 29 -7 31 -22z m-678 -124 c0 -23 3 -26 25 -21 32 6 45 -23
21 -46 -14 -14 -18 -14 -25 -4 -11 19 -19 -3 -15 -41 1 -15 -1 -25 -7 -22 -5
4 -12 -1 -15 -9 -8 -20 -24 -21 -24 -1 0 8 -4 15 -10 15 -5 0 -7 7 -4 15 4 8
1 15 -5 15 -6 0 -8 6 -5 13 3 9 -3 13 -18 13 -18 -1 -24 5 -26 28 -3 26 -1 28
25 24 25 -3 28 -1 29 24 1 15 7 35 15 44 12 14 14 14 26 -2 7 -10 13 -30 13
-45z m210 37 c7 -14 10 -36 8 -49 -4 -22 -3 -24 12 -15 18 12 50 5 50 -10 0
-4 -7 -17 -15 -28 -12 -15 -16 -16 -24 -5 -10 15 -26 -3 -16 -19 3 -5 1 -10
-5 -10 -8 0 -8 -6 0 -20 9 -16 8 -18 -5 -14 -10 4 -15 0 -15 -10 0 -9 -4 -16
-10 -16 -5 0 -10 7 -10 16 0 11 -5 14 -16 10 -15 -6 -15 -4 -3 10 10 13 11 18
2 21 -7 2 -9 11 -6 19 3 8 0 14 -6 14 -6 0 -11 -6 -11 -12 -1 -7 -9 -3 -20 10
-10 13 -16 30 -13 37 6 18 34 20 50 4 9 -9 10 -7 6 10 -5 22 14 81 27 81 3 0
12 -11 20 -24z m-100 -257 c0 -23 3 -26 25 -21 35 6 44 -23 16 -51 -13 -13
-21 -16 -21 -9 0 7 -5 10 -10 7 -6 -4 -8 -11 -5 -16 4 -5 1 -9 -6 -9 -10 0
-10 -3 -1 -12 15 -15 16 -32 2 -23 -6 3 -13 -1 -16 -9 -8 -20 -24 -21 -24 -1
0 8 -4 15 -10 15 -5 0 -7 7 -4 15 4 8 1 15 -5 15 -6 0 -8 6 -5 13 3 9 -3 13
-18 13 -18 -1 -24 5 -26 27 -3 21 1 27 15 27 11 0 24 -4 29 -10 7 -7 10 1 10
24 0 19 6 42 14 51 13 16 15 16 27 -1 7 -10 13 -30 13 -45z m200 0 c0 -23 3
-26 25 -21 35 6 44 -23 16 -51 -20 -21 -21 -21 -21 -2 0 16 -2 17 -9 5 -6 -8
-7 -18 -5 -22 3 -4 0 -8 -7 -8 -10 0 -10 -3 -1 -12 15 -15 16 -32 2 -23 -6 3
-13 -1 -16 -9 -8 -20 -24 -21 -24 -1 0 8 -4 15 -10 15 -5 0 -7 6 -4 13 2 7 -9
20 -26 30 -20 12 -30 26 -30 43 0 27 27 33 49 12 10 -11 11 -8 6 15 -5 18 -2
36 10 54 17 25 18 26 31 8 8 -10 14 -31 14 -46z m1190 -16 c0 -7 -9 -17 -20
-23 -11 -6 -20 -20 -20 -30 0 -12 -7 -20 -16 -20 -9 0 -18 -9 -21 -20 -3 -11
-11 -20 -18 -20 -6 0 -20 -9 -30 -20 -26 -29 -37 -12 -39 62 l-1 63 -65 0 -65
0 0 -150 0 -150 66 -1 66 -1 -2 46 c-4 78 -3 75 -20 61 -8 -7 -15 -18 -15 -25
0 -7 -9 -15 -20 -18 -11 -3 -20 -11 -20 -19 0 -7 -11 -18 -23 -24 -23 -10 -24
-10 -10 18 8 15 21 28 29 28 8 0 14 7 14 15 0 8 6 15 14 15 7 0 19 7 26 15 7
8 16 13 20 10 5 -3 10 1 13 7 3 9 12 6 29 -9 13 -13 30 -23 36 -23 7 0 12 -7
12 -16 0 -9 9 -18 20 -21 23 -6 27 -33 5 -33 -8 0 -15 7 -15 16 0 9 -9 18 -20
21 -11 3 -20 11 -20 18 0 6 -8 19 -17 28 -17 15 -18 12 -20 -49 l-2 -64 48 3
c26 2 53 7 60 12 9 5 12 4 8 -3 -5 -6 0 -8 13 -5 13 3 20 0 20 -8 0 -11 -31
-14 -158 -14 l-157 0 1 170 c1 94 2 170 3 170 1 0 71 0 156 0 115 0 155 -3
155 -12z m-477 -64 c-1 -36 0 -38 5 -14 6 23 13 29 32 29 21 0 26 -5 32 -39 3
-22 7 -80 9 -130 l2 -90 -109 -3 -109 -3 2 93 c0 51 4 100 7 108 3 8 4 24 3
35 -1 15 5 21 25 23 24 3 27 0 31 -35 3 -29 4 -25 5 19 l2 56 33 -2 c31 -3 32
-4 30 -47z m350 -349 c-1 -19 1 -25 4 -12 4 20 11 23 51 22 4 0 7 -8 8 -18 1
-9 2 -19 3 -22 2 -3 4 -37 6 -76 l4 -72 -31 -6 c-38 -8 -102 -8 -148 0 l-35 6
2 71 c1 40 2 82 2 95 1 18 7 22 30 22 23 0 31 -5 34 -22 4 -18 5 -16 5 7 0 46
0 46 35 43 30 -3 32 -5 30 -38z m-1845 -289 c181 -286 182 -289 182 -345 0
-52 -1 -56 -19 -47 -10 6 -108 151 -217 323 -108 172 -204 323 -212 336 -14
22 -14 22 34 22 l49 0 183 -289z"/>
<path d="M5423 5897 c-1 -11 7 -36 17 -57 10 -20 18 -43 17 -51 -4 -23 -18
-40 -28 -34 -5 4 -9 -1 -9 -9 0 -21 19 -20 41 0 15 14 23 14 56 3 36 -12 37
-12 13 -21 -29 -11 -43 -30 -28 -39 17 -10 -2 -31 -23 -26 -12 3 -19 0 -19
-10 0 -23 49 -8 79 24 22 23 26 24 36 9 7 -8 15 -13 18 -10 3 3 11 3 17 -1 8
-5 7 -12 -5 -25 -14 -15 -14 -18 -1 -23 22 -9 39 46 21 70 -20 25 -18 43 3 44
13 0 14 2 2 6 -8 4 -32 17 -52 30 l-37 23 19 33 c18 30 18 35 4 55 -20 29 -54
30 -49 2 4 -20 -17 -37 -43 -36 -17 1 -31 25 -25 45 3 11 -1 18 -9 18 -8 0
-15 -9 -15 -20z"/>
<path d="M6220 5555 l0 -45 85 0 85 0 0 45 0 45 -85 0 -85 0 0 -45z"/>
<path d="M5077 5544 c-3 -3 3 -27 14 -52 24 -56 22 -98 -4 -94 -16 3 -17 0 -7
-17 13 -26 15 -26 38 -1 17 19 21 19 58 6 21 -8 32 -15 23 -15 -18 -1 -58 -41
-41 -41 17 0 15 -20 -3 -25 -51 -16 -50 -16 -35 -25 18 -11 48 4 77 39 22 25
23 26 38 7 8 -11 15 -16 15 -11 0 5 5 4 12 -3 8 -8 8 -15 -2 -27 -17 -20 -5
-32 15 -15 31 26 5 115 -43 143 -18 11 -31 22 -30 26 31 58 31 61 18 86 -13
25 -50 35 -50 14 0 -5 -6 -7 -12 -3 -8 5 -8 1 1 -10 13 -15 13 -19 0 -27 -8
-5 -19 -9 -25 -9 -18 0 -37 28 -30 45 5 15 -14 21 -27 9z"/>
<path d="M7119 5416 c9 -11 9 -15 -1 -20 -11 -5 -11 -7 0 -12 10 -5 9 -11 -4
-32 -14 -21 -14 -24 -1 -19 13 5 13 0 1 -41 -13 -43 -12 -45 2 -27 15 19 16
17 10 -30 -4 -27 -10 -59 -13 -70 -3 -11 -2 -16 3 -12 5 5 15 27 21 50 l13 42
-6 -49 c-4 -33 -2 -46 5 -41 6 3 11 17 11 31 0 14 4 23 9 19 5 -3 12 3 14 12
2 10 3 1 0 -20 -2 -28 0 -36 8 -31 9 5 10 2 5 -12 -5 -10 -8 -26 -9 -34 0 -8
-7 -24 -16 -35 -16 -20 -15 -20 5 -3 18 16 23 16 40 3 29 -22 41 -18 15 6 -16
16 -20 24 -11 29 9 5 9 9 1 14 -6 4 -11 14 -11 22 0 8 4 12 10 9 6 -4 8 7 5
27 l-5 33 20 -40 19 -40 2 40 1 40 13 -40 14 -40 -5 65 c-4 47 -3 61 5 50 14
-20 14 0 1 36 -8 20 -8 29 1 35 10 6 10 11 -1 24 -12 14 -12 18 1 27 10 7 11
11 2 14 -7 3 -9 12 -6 21 4 11 0 14 -18 11 -13 -1 -25 -11 -27 -20 -2 -13 1
-16 12 -12 11 4 13 0 9 -18 -3 -13 -10 -28 -15 -35 -5 -7 -7 -17 -4 -22 4 -5
1 -13 -5 -17 -8 -4 -9 -3 -5 4 4 7 2 12 -5 12 -8 0 -10 13 -6 41 6 43 1 69
-13 69 -4 0 -7 -8 -7 -17 2 -33 -14 -93 -24 -93 -6 0 -7 -6 -3 -12 5 -9 2 -9
-9 1 -18 15 -23 26 -7 16 6 -3 10 -2 10 4 0 5 -5 13 -10 16 -6 4 -7 23 -4 46
6 37 5 39 -21 39 -22 0 -25 -3 -16 -14z"/>
<path d="M6868 5402 c-3 -9 3 -42 13 -72 10 -30 18 -66 19 -80 0 -26 -12 -52
-24 -51 -8 1 -8 -9 -1 -34 5 -19 7 -18 28 8 22 26 25 27 54 14 l32 -13 -27
-12 c-26 -11 -42 -52 -21 -52 5 0 9 -7 9 -15 0 -9 -9 -15 -25 -15 -26 0 -33
-18 -14 -37 8 -8 19 -4 40 15 16 14 29 31 29 37 0 7 6 18 14 24 11 9 15 7 19
-9 3 -11 12 -20 21 -20 21 0 20 -27 -1 -39 -15 -8 -16 -12 -5 -23 11 -11 16
-10 28 6 17 24 18 52 3 96 -10 28 -9 34 5 42 13 7 15 21 12 69 -2 33 -6 63 -9
65 -3 3 0 18 6 33 12 32 5 59 -18 67 -23 9 -27 0 -16 -37 6 -24 10 -28 11 -14
1 11 2 26 1 34 -2 7 2 10 8 6 14 -8 14 -38 -1 -70 -9 -20 -9 -37 1 -76 7 -28
10 -53 7 -57 -4 -3 -22 10 -42 29 l-35 35 16 48 c19 56 17 95 -7 110 -14 8
-22 6 -40 -12 -17 -16 -20 -25 -11 -30 8 -5 9 -13 3 -22 -6 -8 -10 -10 -10 -5
0 6 -4 5 -8 -2 -14 -22 -36 4 -35 41 1 38 -21 51 -29 18z"/>
<path d="M6117 5178 c-2 -7 4 -32 15 -56 10 -24 18 -52 18 -62 0 -20 -23 -43
-33 -33 -4 3 -7 -1 -7 -9 0 -9 7 -18 15 -22 8 -3 15 -1 15 4 0 20 38 30 71 18
31 -11 31 -12 11 -19 -12 -5 -23 -14 -23 -21 -1 -7 -2 -20 -3 -28 0 -9 -10
-15 -23 -14 -13 0 -23 -5 -23 -11 0 -22 50 -10 76 18 24 26 52 38 39 17 -3 -5
3 -10 14 -10 27 0 38 -20 17 -32 -16 -9 -14 -28 3 -28 16 0 31 51 21 70 -5 10
-10 28 -10 40 0 13 -13 28 -35 41 -19 12 -35 23 -35 25 0 3 7 19 16 36 13 26
14 35 3 54 -19 37 -56 30 -50 -9 1 -4 -10 -13 -25 -19 -28 -13 -44 -1 -44 34
0 21 -17 33 -23 16z"/>
<path d="M5767 4806 c-2 -6 4 -28 14 -48 25 -49 25 -87 -1 -96 -13 -5 -17 -11
-10 -21 7 -12 12 -12 34 2 19 13 34 15 63 8 l38 -9 -32 -12 c-32 -12 -46 -40
-20 -40 7 -1 4 -6 -6 -15 -11 -7 -26 -11 -35 -7 -15 5 -15 3 -4 -11 17 -20 38
-13 76 25 25 25 31 27 38 14 5 -9 16 -16 23 -16 18 0 20 -27 3 -33 -10 -3 -10
-7 -1 -17 10 -10 14 -8 24 13 9 20 9 33 -1 57 -11 27 -11 32 6 45 14 11 15 14
3 10 -23 -8 -90 36 -82 55 3 8 10 27 16 43 10 23 8 30 -10 48 -24 25 -43 18
-43 -15 0 -17 -7 -25 -25 -28 -29 -6 -50 14 -43 40 6 20 -18 27 -25 8z"/>
<path d="M4618 4693 c-9 -10 -20 -38 -24 -61 -6 -38 -5 -42 15 -42 15 0 21 6
21 23 0 43 44 63 70 32 11 -13 14 -13 27 0 8 8 20 15 27 15 21 0 48 -37 44
-61 -2 -17 3 -25 16 -27 17 -4 18 1 14 53 -6 66 -15 75 -78 74 -25 0 -61 3
-80 6 -27 5 -39 3 -52 -12z"/>
<path d="M4465 4438 c-147 -119 -374 -240 -521 -279 -75 -20 -82 -24 -73 -40
5 -10 28 -24 50 -31 84 -25 237 37 476 194 76 50 139 91 141 93 2 1 -3 25 -10
53 l-13 50 -50 -40z"/>
<path d="M6807 4426 c-2 -6 4 -28 14 -48 26 -51 25 -98 -1 -98 -13 0 -18 -5
-14 -15 8 -19 23 -19 44 0 13 12 26 13 56 6 l39 -9 -32 -12 c-33 -12 -44 -35
-20 -43 17 -6 4 -18 -22 -20 -12 -1 -20 -6 -18 -11 7 -21 27 -16 65 19 31 28
41 32 46 20 3 -8 12 -15 21 -15 18 0 20 -26 3 -33 -7 -2 -10 -8 -6 -12 4 -4
14 -5 23 -2 17 7 21 62 5 72 -16 10 -11 35 8 36 13 0 14 2 2 6 -8 4 -32 17
-52 30 l-37 23 20 34 20 34 -24 28 c-26 30 -47 26 -47 -10 0 -17 -7 -25 -25
-29 -28 -5 -49 20 -40 46 4 8 0 14 -9 14 -9 0 -17 -5 -19 -11z"/>
<path d="M9550 4240 c-19 -11 -47 -19 -62 -20 -43 0 -77 -18 -90 -46 -9 -20
-9 -27 1 -34 8 -4 11 -14 9 -21 -7 -19 10 -49 27 -49 18 0 20 41 3 58 -9 9 -9
15 -1 23 13 13 33 4 33 -16 0 -21 50 -55 82 -55 37 0 68 16 68 36 0 9 -5 12
-12 8 -8 -5 -9 -2 -5 9 4 10 2 16 -5 14 -19 -4 -19 19 2 41 25 27 27 72 3 72
-10 -1 -34 -9 -53 -20z"/>
<path d="M9686 4233 c3 -15 9 -30 13 -33 14 -9 23 -50 12 -50 -6 0 -10 -3 -9
-7 0 -5 -2 -16 -7 -27 -11 -25 11 -38 58 -32 40 4 77 30 77 52 0 18 20 28 32
16 7 -7 4 -19 -8 -36 -12 -20 -14 -30 -6 -38 18 -18 42 -1 42 31 0 16 6 31 13
34 9 3 9 9 -2 29 -15 29 -50 48 -85 48 -13 0 -43 9 -67 20 -59 27 -69 26 -63
-7z"/>
<path d="M6463 4063 c-17 -6 -16 -32 2 -67 21 -41 25 -73 11 -85 -7 -6 -16 -8
-19 -4 -4 3 -7 -3 -7 -15 0 -28 14 -28 39 -1 19 21 22 21 58 6 21 -9 31 -16
22 -16 -22 -1 -54 -38 -38 -43 18 -6 1 -28 -22 -28 -19 0 -25 -11 -13 -23 9
-9 45 11 73 41 21 23 24 24 33 9 5 -10 13 -15 18 -12 14 8 23 -16 11 -28 -15
-15 -14 -27 3 -27 23 0 29 37 14 87 -12 41 -40 75 -70 85 -6 2 -2 17 10 37 19
31 19 36 5 57 -15 24 -53 33 -53 13 0 -5 -6 -7 -12 -4 -7 4 -5 0 6 -9 18 -15
18 -16 -7 -27 -35 -16 -61 4 -52 38 3 13 4 23 3 22 -2 0 -9 -3 -15 -6z"/>
<path d="M7617 3923 c-4 -3 -7 -26 -7 -50 l0 -43 75 0 74 0 7 35 c11 58 3 65
-74 65 -38 0 -72 -3 -75 -7z"/>
<path d="M5728 3868 c9 -9 9 -15 -1 -26 -9 -12 -9 -16 1 -20 10 -3 10 -7 0
-20 -10 -11 -10 -16 -1 -19 8 -3 9 -13 2 -36 -12 -42 -11 -56 2 -37 8 11 9 -3
4 -50 -7 -70 -1 -77 14 -14 l9 39 2 -45 1 -45 20 45 20 45 -5 -38 c-3 -22 -1
-35 5 -32 5 4 9 -1 9 -9 0 -8 -5 -18 -11 -22 -8 -5 -8 -9 1 -14 9 -5 5 -13
-11 -29 -12 -11 -18 -21 -11 -21 6 0 14 5 17 10 4 6 11 8 16 5 5 -4 9 -1 9 5
0 6 5 8 10 5 6 -4 8 -16 4 -27 -5 -18 -4 -19 9 -7 14 12 13 16 -6 37 -14 15
-16 22 -7 22 11 0 11 3 2 12 -7 7 -12 19 -12 28 0 13 2 13 11 0 7 -11 9 -3 6
30 -2 25 -2 35 0 23 2 -13 9 -23 14 -23 5 0 9 -9 9 -20 0 -11 4 -20 9 -20 5 0
7 21 5 48 l-4 47 11 -40 c14 -55 28 -66 18 -13 -4 24 -8 52 -8 63 -1 17 1 17
9 5 8 -13 10 -13 10 2 0 9 -4 28 -10 42 -6 18 -6 26 1 26 6 0 8 7 5 16 -4 9
-1 23 5 30 9 11 8 14 -1 14 -8 0 -10 8 -7 21 4 16 1 20 -16 17 -15 -2 -23 -11
-25 -28 -2 -20 -1 -22 7 -10 16 23 13 2 -5 -36 -23 -48 -34 -42 -31 17 1 39
-2 53 -13 56 -10 3 -11 2 -4 -4 14 -10 -11 -103 -27 -103 -6 0 -7 -5 -3 -12 4
-7 3 -8 -5 -4 -6 4 -9 12 -5 17 3 5 0 16 -6 24 -6 8 -9 19 -5 25 3 5 1 10 -4
10 -6 0 -11 4 -11 10 0 5 8 6 17 3 13 -5 15 -2 10 11 -4 10 -7 20 -7 22 0 2
-12 4 -27 4 -21 0 -24 -3 -15 -12z"/>
<path d="M5485 3833 c2 -21 10 -58 17 -83 15 -47 10 -97 -10 -92 -17 3 -15
-45 2 -51 8 -3 19 5 26 19 15 28 18 28 58 11 l31 -13 -30 -13 c-27 -12 -42
-51 -19 -51 5 0 7 -7 4 -15 -4 -8 -15 -15 -25 -15 -19 0 -26 -24 -10 -34 17
-11 41 6 65 46 23 39 24 39 30 14 4 -17 11 -23 21 -20 17 7 21 -21 5 -31 -15
-9 -12 -35 4 -35 24 0 38 58 24 97 -10 28 -10 38 5 62 9 15 13 31 10 35 -4 4
-7 48 -8 99 0 85 -2 92 -21 95 -18 3 -20 -1 -16 -33 4 -30 6 -33 16 -20 8 12
11 -5 11 -75 1 -49 -1 -90 -3 -90 -1 0 -19 15 -38 34 l-34 33 22 52 c16 40 19
59 12 79 -11 33 -54 40 -61 11 -3 -10 -10 -16 -17 -12 -6 3 -6 0 2 -8 16 -18
15 -42 -2 -36 -7 3 -18 1 -24 -5 -12 -12 -26 26 -20 58 2 11 -4 20 -13 22 -14
2 -16 -4 -14 -35z"/>
<path d="M6438 3473 c-2 -148 -2 -270 -1 -272 2 -2 9 1 16 7 10 9 16 9 25 0 8
-8 15 -8 25 0 10 8 17 8 24 1 6 -6 15 -9 20 -6 4 3 7 125 5 271 -3 257 -3 266
-22 266 -19 0 -20 -8 -20 -261 0 -243 -1 -260 -17 -257 -17 3 -18 25 -21 261
-2 215 -5 257 -17 257 -12 0 -15 -43 -17 -267z"/>
<path d="M6588 3473 c-2 -148 -2 -270 0 -273 2 -2 11 1 22 8 13 8 21 8 25 1 5
-7 11 -6 20 1 10 8 15 8 20 0 21 -34 26 14 28 263 2 247 1 267 -15 267 -16 0
-18 -21 -20 -257 -3 -236 -4 -258 -20 -261 -17 -3 -18 14 -18 257 0 253 -1
261 -20 261 -19 0 -19 -9 -22 -267z"/>
<path d="M7497 3694 c-3 -4 0 -18 7 -33 21 -39 23 -66 7 -85 -19 -22 -6 -33
16 -13 12 10 28 13 46 10 28 -5 28 -6 7 -20 -12 -9 -19 -21 -16 -29 4 -9 -3
-18 -16 -23 -13 -5 -17 -10 -11 -14 6 -4 25 4 42 18 25 22 34 24 51 15 21 -11
27 -30 10 -30 -5 0 -10 -4 -10 -10 0 -16 30 -11 37 6 3 8 0 27 -8 40 -11 22
-11 27 1 34 13 8 13 10 0 10 -8 0 -26 9 -39 19 -23 17 -23 21 -11 50 10 25 10
34 0 46 -17 21 -40 19 -40 -4 0 -20 -25 -35 -41 -25 -5 3 -9 14 -9 25 0 19
-11 25 -23 13z"/>
<path d="M7147 3358 c-2 -7 4 -32 15 -56 24 -57 23 -83 -2 -89 -21 -6 -28 -33
-8 -33 6 0 19 7 28 15 13 12 28 14 61 9 l43 -7 -32 -16 c-27 -12 -32 -19 -27
-38 4 -19 1 -23 -20 -23 -26 0 -34 -15 -12 -23 17 -6 48 11 75 42 21 24 24 24
33 8 6 -9 17 -17 24 -17 8 0 15 -7 15 -15 0 -8 -7 -15 -15 -15 -8 0 -15 -4
-15 -10 0 -18 29 -11 40 10 8 15 7 27 -5 50 -14 27 -14 30 5 40 11 6 19 18 19
28 -1 16 -2 16 -6 0 -6 -24 -17 -23 -56 4 -18 13 -34 24 -36 25 -1 1 4 16 13
34 20 40 20 44 -1 69 -24 28 -41 25 -45 -7 -3 -24 -8 -28 -33 -28 -25 0 -30 4
-33 28 -3 28 -17 36 -25 15z"/>
<path d="M6756 3247 c2 -53 8 -94 14 -101 9 -8 11 -5 6 14 -3 14 -3 19 0 12 3
-6 10 -10 14 -7 5 3 8 -14 7 -39 -1 -24 1 -42 6 -39 7 4 11 -11 8 -37 -2 -13
-1 -13 8 0 5 8 7 18 5 22 -3 4 0 8 6 8 7 0 8 5 3 13 -10 16 -11 77 -1 77 4 0
8 -8 8 -17 0 -14 2 -15 9 -4 6 9 10 9 12 2 2 -6 4 34 5 88 0 78 -3 98 -13 94
-7 -3 -13 -18 -13 -33 0 -16 -4 -32 -10 -35 -5 -3 -9 8 -7 27 1 18 -2 33 -8
33 -5 0 -9 -4 -7 -9 2 -6 0 -21 -3 -35 -6 -23 -8 -24 -16 -8 -6 10 -8 26 -4
36 4 13 0 20 -13 23 -16 5 -18 -2 -16 -85z"/>
<path d="M6959 3323 c-5 -45 -2 -110 5 -106 4 3 6 -14 2 -38 -4 -32 -3 -37 3
-19 l9 25 2 -25 c1 -23 2 -23 10 -5 l9 20 1 -20 c1 -11 3 -28 5 -37 2 -10 -1
-20 -6 -24 -5 -3 -9 0 -9 5 0 6 -5 11 -11 11 -6 0 -1 -13 10 -29 12 -16 21
-35 21 -42 0 -8 9 4 21 25 11 21 18 41 15 44 -3 3 -6 0 -6 -7 0 -7 -4 -10 -9
-7 -5 4 -8 14 -6 24 2 9 4 26 5 37 l1 20 8 -20 c7 -16 10 -12 15 23 4 23 12
40 17 36 5 -3 5 6 -1 20 -5 14 -6 26 -2 26 6 0 7 21 3 63 -1 4 -8 7 -17 7 -12
0 -14 -7 -10 -27 3 -16 2 -35 -4 -43 -7 -11 -10 -4 -10 28 0 23 -4 42 -10 42
-5 0 -10 -12 -10 -27 0 -36 -19 -68 -21 -38 -1 11 -1 30 0 43 1 14 -4 22 -14
22 -8 0 -15 -3 -16 -7z"/>
<path d="M6436 3151 c3 -19 7 -37 11 -41 3 -3 4 7 1 22 -4 23 -3 25 14 15 10
-7 18 -20 18 -29 0 -10 9 -22 20 -28 11 -6 20 -18 20 -28 0 -9 9 -28 20 -42
11 -14 20 -29 20 -35 0 -5 -10 5 -21 23 -12 17 -27 32 -35 32 -8 0 -14 10 -14
24 0 15 -7 26 -20 29 -24 6 -24 9 1 -50 20 -47 34 -62 74 -75 19 -6 18 -6 -2
-7 -26 -1 -29 -17 -8 -45 13 -17 15 -17 21 -3 8 22 24 12 24 -15 0 -14 -5 -18
-16 -14 -9 4 -4 -9 14 -31 37 -47 92 -100 92 -89 0 5 7 3 15 -4 18 -15 17 -20
20 98 2 86 -5 117 -20 92 -5 -8 -11 -7 -21 1 -9 7 -18 8 -26 2 -9 -6 -22 -5
-38 3 -17 10 -20 14 -8 14 9 0 18 6 21 13 3 9 8 9 21 -2 15 -12 19 -13 26 -1
7 11 11 11 23 1 9 -6 17 -8 20 -4 4 7 2 185 -2 204 -2 8 -114 5 -128 -4 -7 -5
-13 -4 -13 1 0 5 -29 9 -64 9 l-64 0 4 -36z"/>
<path d="M7085 2835 c-44 -25 -83 -46 -87 -47 -12 -5 14 -108 28 -108 7 0 24
11 37 25 l23 26 19 -23 c11 -13 13 -17 5 -10 -43 38 -34 -27 11 -73 17 -18 29
-42 29 -57 0 -14 10 -38 22 -54 l22 -28 7 25 7 24 1 -27 c2 -42 19 -43 23 -1
l4 38 8 -42 c10 -50 30 -61 52 -28 14 21 14 26 0 53 -9 17 -21 32 -28 35 -10
4 -10 6 -1 6 7 1 24 -16 37 -36 22 -32 26 -34 32 -18 5 11 0 31 -10 49 l-18
31 23 -20 22 -20 -5 28 c-3 15 -3 27 -1 27 2 0 57 -36 123 -80 66 -44 122 -80
126 -80 4 0 -49 53 -117 118 -120 115 -124 118 -140 99 -12 -15 -22 -18 -42
-13 -23 5 -27 12 -27 41 0 24 5 35 15 35 8 0 15 4 15 8 0 16 -58 64 -69 58 -6
-4 -9 -1 -6 6 3 8 -9 28 -27 45 l-33 32 -80 -44z"/>
<path d="M5647 2793 c-4 -3 -7 -18 -7 -32 0 -14 -5 -33 -10 -41 -7 -11 -10 -5
-10 23 0 45 -20 50 -21 5 -1 -27 -2 -29 -7 -11 -12 39 -52 -10 -52 -63 0 -15
-13 -41 -30 -61 -41 -46 -40 -96 0 -60 8 6 5 0 -8 -14 -30 -34 -17 -44 22 -17
l31 21 -27 -29 c-37 -40 -37 -64 1 -64 33 0 40 8 52 54 l8 31 -3 -30 c-2 -16
-7 -38 -11 -47 -13 -32 23 -20 40 12 18 36 25 39 17 8 -5 -23 -5 -23 16 -4 17
14 22 31 22 64 0 39 5 50 35 78 20 18 35 41 35 54 0 20 -2 21 -17 9 -15 -13
-15 -12 -5 8 15 26 16 63 2 63 -5 0 -16 -13 -25 -30 -9 -16 -20 -30 -26 -30
-5 0 0 13 12 30 20 26 21 32 9 55 -13 24 -30 32 -43 18z"/>
<path d="M6011 2678 c-12 -26 -11 -30 15 -51 16 -12 36 -20 46 -19 10 2 53
-13 97 -32 47 -22 94 -36 118 -36 34 0 42 -4 52 -27 l12 -28 -19 24 -19 24
-16 -24 c-29 -46 -30 -66 -3 -73 50 -13 39 -76 -14 -76 -24 0 -30 -5 -32 -22
-2 -34 -1 -45 6 -73 6 -25 6 -26 -18 -10 -18 12 -53 17 -130 19 l-105 2 -32
-42 c-35 -47 -99 -97 -153 -119 -19 -8 -89 -21 -155 -29 -132 -17 -187 -38
-220 -85 -12 -16 -21 -33 -21 -38 0 -5 79 -19 175 -32 168 -23 177 -23 241 -8
89 22 142 55 231 142 40 40 73 71 73 70 0 -12 -102 -205 -137 -259 -121 -186
-299 -285 -516 -286 -81 0 -89 -11 -55 -72 16 -30 37 -49 73 -67 43 -23 62
-26 147 -26 l97 0 -47 -33 c-154 -111 -309 -146 -426 -97 -137 58 -201 238
-133 374 l27 53 -27 -7 c-54 -13 -116 -50 -153 -92 -99 -113 -74 -298 59 -432
208 -212 526 -160 807 131 125 129 299 386 296 436 -1 13 5 36 13 52 8 16 15
39 15 51 0 30 55 123 89 152 16 13 49 30 75 37 44 12 46 14 46 51 0 21 -4 41
-10 44 -14 9 -12 62 3 62 6 0 20 4 29 8 24 10 35 -38 15 -68 -8 -12 -14 -35
-14 -51 0 -24 6 -31 46 -48 57 -24 83 -47 130 -118 27 -40 41 -73 48 -120 23
-142 235 -440 418 -586 174 -140 348 -191 510 -148 210 54 354 274 301 457
-21 73 -84 137 -162 167 -31 11 -58 19 -60 17 -2 -2 6 -23 18 -47 26 -53 35
-148 19 -207 -27 -99 -129 -180 -239 -190 -100 -9 -229 37 -351 125 l-41 30
78 -5 c106 -7 178 14 227 68 37 41 46 83 19 93 -9 3 -41 6 -72 6 -269 1 -477
171 -616 505 -16 38 -15 37 62 -38 90 -87 173 -132 263 -143 49 -6 364 29 378
42 2 2 -8 19 -23 39 -40 52 -90 73 -203 85 -172 19 -253 58 -330 159 -24 31
-46 50 -59 50 -42 2 -128 -19 -145 -35 -16 -15 -17 -13 -12 25 7 53 -18 97
-47 81 -30 -16 -58 -12 -79 11 -16 17 -18 26 -10 42 9 16 18 19 54 15 l43 -5
-9 31 c-5 17 -20 40 -35 52 l-26 21 44 5 c27 3 66 20 107 47 52 33 73 41 112
41 26 0 51 5 54 10 4 6 -5 26 -19 44 l-26 34 -71 -18 c-190 -49 -427 -52 -595
-8 l-91 24 -12 -28z"/>
<path d="M7397 2371 c-13 -16 -28 -46 -31 -66 -9 -44 9 -138 36 -185 10 -19
17 -28 14 -19 -24 83 -13 162 23 172 14 3 20 18 23 58 8 75 -20 92 -65 40z"/>
<path d="M5395 2362 c-6 -4 -9 -30 -7 -60 3 -45 8 -55 28 -62 13 -5 26 -21 30
-35 6 -26 1 -92 -11 -130 -3 -11 3 -4 14 15 27 48 44 134 36 185 -9 64 -58
110 -90 87z"/>
<path d="M6421 1742 c-1 -38 -23 -112 -33 -112 -8 0 -24 -114 -21 -142 2 -10
-4 -18 -11 -18 -12 0 -14 15 -10 78 4 83 -9 70 -21 -20 -4 -34 -11 -48 -22
-48 -10 0 -13 5 -8 18 13 33 18 129 7 148 -10 17 -11 16 -12 -9 0 -24 -4 -28
-22 -25 -16 2 -31 19 -50 57 -15 30 -33 58 -40 62 -15 9 -76 -94 -158 -266
-110 -230 -167 -406 -177 -546 -16 -219 98 -308 260 -201 20 14 37 28 37 31 0
4 -16 13 -35 19 -43 16 -82 62 -91 108 -18 99 65 284 226 503 l68 93 8 -58
c12 -85 9 -257 -6 -344 -7 -41 -34 -154 -61 -249 -27 -96 -49 -193 -49 -215 0
-62 19 -116 50 -148 36 -35 75 -36 124 -3 20 13 36 21 36 17 0 -15 59 -42 90
-42 72 0 122 111 101 222 -5 29 -28 115 -50 191 -55 187 -75 331 -68 475 4 62
10 119 15 128 7 12 23 -5 73 -75 154 -218 210 -333 216 -446 5 -86 -16 -128
-77 -153 -46 -20 -46 -29 0 -60 152 -103 275 -4 255 206 -13 134 -69 313 -162
512 -55 119 -144 280 -154 280 -4 0 -10 -9 -14 -19 -3 -10 -16 -22 -29 -25
-20 -5 -27 -19 -47 -106 -16 -68 -28 -100 -37 -100 -10 0 -12 7 -8 23 4 12 9
40 12 62 l4 40 -15 -45 c-8 -25 -15 -53 -15 -63 0 -11 -5 -17 -12 -14 -7 2
-11 13 -10 23 2 10 9 45 15 77 10 55 10 60 -10 75 -20 16 -46 69 -56 117 -3
12 -5 7 -6 -13z"/>
<path d="M9153 1637 c-139 -28 -253 -54 -253 -57 1 -8 504 -340 509 -335 2 3
-5 15 -17 28 -38 41 -24 97 25 97 22 0 22 2 25 160 3 155 2 160 -17 159 -11
-1 -134 -24 -272 -52z"/>
</g>
</svg>
